# xmcd
#
# Track frame offsets: 
#        150
#        15150
#        27450
#        46012
#        61387
#        76424
#        92211
#        114223
#        138185
#        155885
#        175760
#        188172
#        204747
#        222184
#        235234
#        254584
#        271421
#        292571
#        313233
#        338245
#
# Disc length: 4655 seconds
#
# Revision: 7
# Processed by: cddbd v1.5.2PL0 Copyright (c) Steve Scherf et al.
# Submitted via: ExactAudioCopy v1.1
#
DISCID=17122d14
DTITLE=Various Artist - EXIT TUNES PRESENTS Vocalonexus feat. 初音ミク
DYEAR=2011
DGENRE=Pop
TTITLE0=ハチ feat. 初音ミク・GUMI - マトリョシカ
TTITLE1=おにゅうP feat. 初音ミク - 般若心経ポップ
TTITLE2=SCL Project(natsuP) feat. 神威がくぽ - Paranoid Doll
TTITLE3=40mP feat. 初音ミク - トリノコシティ
TTITLE4=オワタP feat. 鏡音リン - アンチクロロベンゼン
TTITLE5=ぶりる feat. 初音ミク - 秘密警察
TTITLE6=さつき が てんこもり feat. 初音ミク - ネトゲ廃人シュプレヒコール
TTITLE7=蝶々P feat. 初音ミク - 心拍数♯0822
TTITLE8=ライブP feat. 鏡音リン - マイリスダメー！
TTITLE9=パワーコードP feat. 巡音ルカ - ナイフ
TTITLE10=ほぼ日P feat. 初音ミク - 家に帰ると妻が必ず死んだふりをしています。
TTITLE11=あー民P feat. 巡音ルカ・神威がくぽ - ggrks-ググれカス-
TTITLE12=マチゲリータ feat. 初音ミク、鏡音リン･レン - 暗い森のサーカス
TTITLE13=新城P feat. KAITO - Pane dhiria
TTITLE14=ひとしずくP feat. 鏡音リン・レン - 秘蜜 ～黒の誓い～
TTITLE15=仕事してP feat. MEIKO - 黄泉桜
TTITLE16=れれれP feat. 鏡音レン - ツンデ恋歌
TTITLE17=Nem feat. GUMI - さよならポラリス
TTITLE18=ふわりP feat. 初音ミク - またあした
TTITLE19=ending of Vocalonexus - ending of Vocalonexus
EXTD=YEAR: 2011
EXTT0=
EXTT1=
EXTT2=
EXTT3=
EXTT4=
EXTT5=
EXTT6=
EXTT7=
EXTT8=
EXTT9=
EXTT10=
EXTT11=
EXTT12=
EXTT13=
EXTT14=
EXTT15=
EXTT16=
EXTT17=
EXTT18=
EXTT19=
PLAYORDER=
